<svg width="78" height="13" viewBox="0 0 78 13" fill="none" xmlns="http://www.w3.org/2000/svg">
<path d="M9.384 12L6.68 8.16C8.184 7.632 9.176 6.352 9.176 4.72C9.176 2.544 7.416 1.008 5.032 1.008H0.0880001V12H2.44V8.432H4.184L6.696 12H9.384ZM2.44 3.168H4.776C5.944 3.168 6.744 3.776 6.744 4.72C6.744 5.664 5.944 6.272 4.776 6.272H2.44V3.168ZM14.5638 3.536C13.4118 3.536 12.2758 3.856 11.1078 4.448L11.8918 6C12.5478 5.664 13.2678 5.408 14.0358 5.408C15.3958 5.408 15.9398 6.176 15.9398 7.056V7.216C15.2358 6.944 14.4998 6.8 13.8278 6.8C11.9078 6.8 10.3878 7.92 10.3878 9.552C10.3878 11.136 11.7478 12.192 13.5078 12.192C14.4038 12.192 15.3478 11.84 15.9398 11.168V12H18.1958V7.056C18.1958 4.896 16.7238 3.536 14.5638 3.536ZM14.0358 10.576C13.2358 10.576 12.6438 10.16 12.6438 9.488C12.6438 8.816 13.3158 8.32 14.1638 8.32C14.8038 8.32 15.4118 8.432 15.9398 8.624V9.392C15.7798 10.16 14.9318 10.576 14.0358 10.576ZM24.9486 3.536C23.8926 3.536 22.9806 4.016 22.4686 4.736V0.815999H20.1326V12H22.4686V7.104C22.4686 6.208 23.2206 5.504 24.1966 5.504C25.1246 5.504 25.7646 6.208 25.7646 7.232V12H28.0206V6.736C28.0206 4.864 26.7406 3.536 24.9486 3.536ZM35.4808 3.728V8.672L35.4648 8.624C35.4648 9.52 34.7128 10.224 33.7368 10.224C32.8088 10.224 32.1688 9.52 32.1688 8.496V3.728H29.9128V8.992C29.9128 10.864 31.1928 12.192 32.9848 12.192C34.0568 12.192 34.9848 11.712 35.4808 10.96V12H37.8168V3.728H35.4808ZM39.8209 12H42.1569V0.815999H39.8209V12ZM58.0246 12L55.3206 8.16C56.8246 7.632 57.8166 6.352 57.8166 4.72C57.8166 2.544 56.0566 1.008 53.6726 1.008H48.7286V12H51.0806V8.432H52.8246L55.3366 12H58.0246ZM51.0806 3.168H53.4166C54.5846 3.168 55.3846 3.776 55.3846 4.72C55.3846 5.664 54.5846 6.272 53.4166 6.272H51.0806V3.168ZM63.2044 3.536C62.0524 3.536 60.9164 3.856 59.7484 4.448L60.5324 6C61.1884 5.664 61.9084 5.408 62.6764 5.408C64.0364 5.408 64.5804 6.176 64.5804 7.056V7.216C63.8764 6.944 63.1404 6.8 62.4684 6.8C60.5484 6.8 59.0284 7.92 59.0284 9.552C59.0284 11.136 60.3884 12.192 62.1484 12.192C63.0444 12.192 63.9884 11.84 64.5804 11.168V12H66.8364V7.056C66.8364 4.896 65.3644 3.536 63.2044 3.536ZM62.6764 10.576C61.8764 10.576 61.2844 10.16 61.2844 9.488C61.2844 8.816 61.9564 8.32 62.8044 8.32C63.4444 8.32 64.0524 8.432 64.5804 8.624V9.392C64.4204 10.16 63.5724 10.576 62.6764 10.576ZM72.8693 12.192C75.3173 12.192 77.3653 10.208 77.3653 7.856C77.3653 5.504 75.3173 3.536 72.8693 3.536C70.4053 3.536 68.3413 5.504 68.3413 7.856C68.3413 10.208 70.4053 12.192 72.8693 12.192ZM72.8693 10.224C71.6213 10.224 70.5813 9.136 70.5813 7.856C70.5813 6.576 71.6213 5.504 72.8693 5.504C74.1013 5.504 75.1413 6.576 75.1413 7.856C75.1413 9.136 74.1013 10.224 72.8693 10.224Z" fill="#160637"/>
</svg>
